<?xml version="1.0" encoding="utf-8"?>
<!-- Generator: Adobe Illustrator 17.0.0, SVG Export Plug-In . SVG Version: 6.00 Build 0)  -->
<!DOCTYPE svg PUBLIC "-//W3C//DTD SVG 1.1//EN" "http://www.w3.org/Graphics/SVG/1.1/DTD/svg11.dtd">
<svg version="1.1" id="Capa_1" xmlns="http://www.w3.org/2000/svg" xmlns:xlink="http://www.w3.org/1999/xlink" x="0px" y="0px"
	 width="300px" height="300px" viewBox="0 0 300 300" enable-background="new 0 0 300 300" xml:space="preserve">
<g id="twitter_2_">
	<path fill="#FFFFFF" d="M299.071,61.51c1.149-1.389,1.241-3.371,0.228-4.861c-1.014-1.491-2.892-2.136-4.606-1.578
		c-7.956,2.594-16.241,4.437-24.79,5.475c10.195-6.168,18.605-15.042,24.221-25.641c0.822-1.551,0.552-3.454-0.668-4.715
		c-1.22-1.262-3.112-1.594-4.69-0.826c-9.918,4.826-20.524,8.444-31.642,10.651c-11.953-12.836-28.966-20.857-47.806-20.857
		c-36.158,0-65.488,29.574-65.488,66.059c0,5.168,0.581,10.206,1.706,15.052c-49.5-2.511-93.909-24.496-125.837-58.523
		c-2.207-2.353-5.502-3.347-8.642-2.61c-3.14,0.737-5.652,3.093-6.58,6.183C2.66,51.378,1.68,57.805,1.68,64.459
		c0,22.932,10.143,43.147,27.712,54.992c-4.743-0.153-11.364-1.623-17.277-3.214c-3.298-0.887-6.82,0.044-9.247,2.449
		c-2.426,2.404-3.383,5.915-2.529,9.221c6.367,24.648,27.101,43.855,51.934,48.887c-5.51,1.515-10.574,2.318-16.551,2.318
		c-0.002,0-0.004,0-0.006,0c-2.678,0-5.155,1.423-6.503,3.736c-1.348,2.314-1.361,5.167-0.042,7.498
		C40.287,210,61.208,223.368,85.107,223.822c-22.414,17.708-50.571,28.261-81.241,28.261c-0.019,0-0.038,0-0.057,0
		c-1.748-0.001-3.272,1.19-3.695,2.886c-0.423,1.697,0.365,3.462,1.909,4.283c25.885,13.761,55.378,21.592,86.669,21.592
		c120.45,0,186.333-100.672,186.333-187.962c0-2.875-0.063-5.702-0.187-8.546C283.822,77.784,291.976,70.097,299.071,61.51z"/>
</g>
</svg>
