<?xml version="1.0" encoding="utf-8"?>
<!-- Generator: Adobe Illustrator 17.0.0, SVG Export Plug-In . SVG Version: 6.00 Build 0)  -->
<!DOCTYPE svg PUBLIC "-//W3C//DTD SVG 1.1//EN" "http://www.w3.org/Graphics/SVG/1.1/DTD/svg11.dtd">
<svg version="1.1" id="Layer_1" xmlns="http://www.w3.org/2000/svg" xmlns:xlink="http://www.w3.org/1999/xlink" x="0px" y="0px"
	 width="240.675px" height="283.491px" viewBox="0 0 240.675 283.491" enable-background="new 0 0 240.675 283.491"
	 xml:space="preserve">
<g>
	<g>
		<path fill="#3DB54A" d="M61.385,82.587h21l1.401-0.281c11.824,0,21.808,5.445,29.96,16.333c4.169,6.097,6.254,12.724,6.254,19.881
			v1.028c0,8.711-2.644,16.084-7.933,22.119c14.186,7.779,21.281,20.221,21.281,37.333c0,17.174-8.898,30.362-26.694,39.571
			c-5.786,1.99-10.95,2.988-15.492,2.988H59.238c-6.159-1.12-9.238-4.294-9.238-9.521V91.92c0.933-6.221,3.174-9.333,6.718-9.333"/>
		<path opacity="0.95" fill="#019547" enable-background="new    " d="M83.249,60.684h21l1.401-0.281
			c11.824,0,21.808,5.445,29.96,16.333c4.169,6.097,6.254,12.724,6.254,19.881v1.028c0,8.711-2.644,16.084-7.933,22.119
			c14.186,7.779,21.281,20.221,21.281,37.333c0,17.174-8.898,30.362-26.694,39.571c-5.786,1.99-10.95,2.988-15.492,2.988H81.102
			c-6.159-1.119-9.238-4.294-9.238-9.52V70.017c0.933-6.221,3.174-9.333,6.718-9.333"/>
	</g>
	<line fill="none" stroke="#3DB54A" stroke-width="2" x1="188.935" y1="41" x2="188.935" y2="240.964"/>
</g>
</svg>
