<?xml version="1.0" encoding="utf-8"?>
<!-- Generator: Adobe Illustrator 17.0.0, SVG Export Plug-In . SVG Version: 6.00 Build 0)  -->
<!DOCTYPE svg PUBLIC "-//W3C//DTD SVG 1.1//EN" "http://www.w3.org/Graphics/SVG/1.1/DTD/svg11.dtd">
<svg version="1.1" id="Layer_1" xmlns="http://www.w3.org/2000/svg" xmlns:xlink="http://www.w3.org/1999/xlink" x="0px" y="0px"
	 width="396.947px" height="199.964px" viewBox="0 0 396.947 199.964" enable-background="new 0 0 396.947 199.964"
	 xml:space="preserve">
<g>
	<g>
		<path fill="#3DB54A" d="M11.385,41.587h21l1.401-0.281c11.824,0,21.808,5.445,29.96,16.333c4.169,6.097,6.254,12.724,6.254,19.881
			v1.028c0,8.711-2.644,16.084-7.933,22.119c14.186,7.779,21.281,20.221,21.281,37.333c0,17.174-8.898,30.362-26.694,39.571
			c-5.786,1.99-10.95,2.988-15.492,2.988H9.238C3.079,179.439,0,176.265,0,171.038V50.92c0.933-6.221,3.174-9.333,6.718-9.333"/>
		<path opacity="0.95" fill="#019547" enable-background="new    " d="M33.249,19.684h21l1.401-0.281
			c11.824,0,21.808,5.445,29.96,16.333c4.169,6.097,6.254,12.724,6.254,19.881v1.028c0,8.711-2.644,16.084-7.933,22.119
			c14.186,7.779,21.281,20.221,21.281,37.333c0,17.174-8.898,30.362-26.694,39.571c-5.786,1.99-10.95,2.988-15.492,2.988H31.102
			c-6.159-1.119-9.238-4.294-9.238-9.52V29.017c0.933-6.221,3.174-9.333,6.718-9.333"/>
	</g>
	<g>
		<path fill="#8EC641" d="M175.319,92.747V40.71h16.346c6.11,0,10.636,1.348,13.581,4.045c2.988,2.765,4.483,6.336,4.483,10.718
			c0,6.516-3.237,10.043-9.706,10.583c3.685,0.54,6.388,1.754,8.106,3.639s2.579,4.608,2.579,8.155c0,4.474-1.45,8.067-4.349,10.786
			c-2.877,2.739-6.663,4.11-11.359,4.11H175.319z M189.371,60.931h0.946c1.685,0,3.017-0.393,3.992-1.178
			c0.978-0.785,1.466-1.888,1.466-3.302c0-3.011-1.653-4.516-4.955-4.516c-0.157,0-0.353,0.003-0.589,0.016
			s-0.524,0.029-0.861,0.052C189.371,52.004,189.371,60.931,189.371,60.931z M189.371,81.456c0.272,0.023,0.507,0.039,0.707,0.052
			c0.203,0.01,0.37,0.016,0.507,0.016c1.751,0,3.151-0.461,4.195-1.381c1.044-0.923,1.568-2.157,1.568-3.708
			c0-1.551-0.524-2.762-1.568-3.639c-1.044-0.877-2.477-1.316-4.297-1.316h-1.113V81.456z"/>
		<path fill="#8EC641" d="M266.537,92.747h-14.055v-22.04L239.575,40.71h14.661l2.526,7.717c0.494,1.505,0.939,2.955,1.332,4.349
			s0.746,2.729,1.06,4.012c0.517-1.908,0.965-3.554,1.348-4.938c0.383-1.384,0.72-2.5,1.011-3.354l2.562-7.785h14.559
			l-12.099,29.996V92.747z"/>
		<path fill="#8EC641" d="M330.966,92.747h-14.056V53.182h-7.753V40.71h29.862v12.472h-8.054
			C330.966,53.182,330.966,92.747,330.966,92.747z"/>
		<path fill="#8EC641" d="M370.819,92.747V40.71h26.118v12.233h-12.066v7.582h10.819v11.761h-10.819v7.955h12.066v12.504H370.819z"
			/>
		<path fill="#8EC641" d="M175.319,161.771v-52.036h16.346c6.11,0,10.636,1.348,13.581,4.045c2.988,2.762,4.483,6.336,4.483,10.714
			c0,6.516-3.237,10.043-9.706,10.583c3.685,0.537,6.388,1.751,8.106,3.639c1.718,1.885,2.579,4.604,2.579,8.155
			c0,4.47-1.45,8.067-4.349,10.783c-2.877,2.742-6.663,4.114-11.359,4.114h-19.681V161.771z M189.371,129.958h0.946
			c1.685,0,3.017-0.393,3.992-1.181c0.978-0.785,1.466-1.885,1.466-3.302c0-3.011-1.653-4.516-4.955-4.516
			c-0.157,0-0.353,0.007-0.589,0.016c-0.236,0.013-0.524,0.029-0.861,0.052C189.371,121.028,189.371,129.958,189.371,129.958z
			 M189.371,150.48c0.272,0.023,0.507,0.039,0.707,0.052c0.203,0.013,0.37,0.016,0.507,0.016c1.751,0,3.151-0.461,4.195-1.381
			c1.044-0.92,1.568-2.157,1.568-3.708c0-1.551-0.524-2.765-1.568-3.639c-1.044-0.877-2.477-1.316-4.297-1.316h-1.113V150.48z"/>
		<path fill="#8EC641" d="M237.938,109.734h14.052v36.803c0,3.079-0.481,5.573-1.45,7.481c-0.942,2-2.517,3.809-4.719,5.426
			c-2.965,2.157-6.571,3.237-10.819,3.237c-4.807,0-8.842-1.191-12.099-3.574c-4.136-3.034-6.201-7.887-6.201-14.559v-34.813h14.052
			v33.57c0,2.268,0.275,3.878,0.825,4.82c0.55,0.942,1.476,1.417,2.782,1.417c1.348,0,2.281-0.439,2.798-1.312
			c0.517-0.923,0.776-2.549,0.776-4.889v-33.606H237.938z"/>
		<path fill="#8EC641" d="M259.272,161.771v-52.036h16.346c6.11,0,10.636,1.348,13.581,4.045c2.988,2.762,4.483,6.336,4.483,10.714
			c0,6.516-3.237,10.043-9.706,10.583c3.685,0.537,6.388,1.751,8.106,3.639c1.718,1.885,2.579,4.604,2.579,8.155
			c0,4.47-1.45,8.067-4.349,10.783c-2.877,2.742-6.663,4.114-11.359,4.114h-19.681V161.771z M273.324,129.958h0.946
			c1.685,0,3.017-0.393,3.992-1.181c0.978-0.785,1.466-1.885,1.466-3.302c0-3.011-1.653-4.516-4.955-4.516
			c-0.157,0-0.353,0.007-0.589,0.016c-0.236,0.013-0.524,0.029-0.861,0.052V129.958z M273.324,150.48
			c0.272,0.023,0.507,0.039,0.707,0.052c0.203,0.013,0.37,0.016,0.507,0.016c1.751,0,3.151-0.461,4.195-1.381
			c1.044-0.92,1.568-2.157,1.568-3.708c0-1.551-0.524-2.765-1.568-3.639c-1.044-0.877-2.477-1.316-4.297-1.316h-1.113V150.48z"/>
		<path fill="#8EC641" d="M300.66,161.771v-52.036h16.346c6.11,0,10.636,1.348,13.581,4.045c2.988,2.762,4.483,6.336,4.483,10.714
			c0,6.516-3.237,10.043-9.706,10.583c3.685,0.537,6.388,1.751,8.106,3.639c1.718,1.885,2.579,4.604,2.579,8.155
			c0,4.47-1.45,8.067-4.349,10.783c-2.877,2.742-6.663,4.114-11.359,4.114H300.66V161.771z M314.712,129.958h0.946
			c1.685,0,3.017-0.393,3.992-1.181c0.978-0.785,1.466-1.885,1.466-3.302c0-3.011-1.653-4.516-4.955-4.516
			c-0.157,0-0.353,0.007-0.589,0.016c-0.236,0.013-0.524,0.029-0.861,0.052V129.958z M314.712,150.48
			c0.272,0.023,0.507,0.039,0.707,0.052c0.203,0.013,0.37,0.016,0.507,0.016c1.751,0,3.151-0.461,4.195-1.381
			c1.044-0.92,1.568-2.157,1.568-3.708c0-1.551-0.524-2.765-1.568-3.639c-1.044-0.877-2.477-1.316-4.297-1.316h-1.113V150.48z"/>
		<path fill="#8EC641" d="M366.65,161.771h-24.603v-52.036h14.052v39.532h10.551V161.771z"/>
		<path fill="#8EC641" d="M370.829,161.771v-52.036h26.118v12.233h-12.066v7.582H395.7v11.765h-10.819v7.952h12.066v12.504
			C396.947,161.771,370.829,161.771,370.829,161.771z"/>
	</g>
	<line fill="none" stroke="#3DB54A" stroke-width="2" x1="138.935" y1="0" x2="138.935" y2="199.964"/>
</g>
</svg>
